<svg width="134" height="134" viewBox="0 0 134 134" fill="none" xmlns="http://www.w3.org/2000/svg">
<path d="M66.6636 23.2039C66.2747 23.2039 65.9637 22.8772 65.9637 22.4525V1.28452C65.9637 0.876189 66.2747 0.533203 66.6636 0.533203C67.0525 0.533203 67.3792 0.859856 67.3792 1.28452V22.4525C67.3792 22.8608 67.0525 23.2039 66.6636 23.2039Z" fill="white"/>
<path d="M66.6636 109.526C66.2747 109.526 65.9637 109.199 65.9637 108.774V93.5352C65.9637 93.1269 66.2747 92.7839 66.6636 92.7839C67.0525 92.7839 67.3792 93.1105 67.3792 93.5352V108.774C67.3792 109.199 67.0525 109.526 66.6636 109.526Z" fill="white"/>
<path d="M25.9704 133.536C25.8304 133.536 25.6748 133.487 25.5503 133.389C25.2392 133.144 25.1615 132.686 25.3948 132.343L37.2481 115.226C37.4815 114.899 37.917 114.818 38.2437 115.063C38.5548 115.308 38.6326 115.765 38.3992 116.108L26.5459 133.225C26.4059 133.421 26.1881 133.536 25.9704 133.536Z" fill="white"/>
<path d="M107.357 133.536C107.139 133.536 106.921 133.421 106.781 133.225L94.9282 116.108C94.6948 115.781 94.7726 115.308 95.0837 115.063C95.3948 114.818 95.8459 114.899 96.0793 115.226L107.933 132.343C108.166 132.67 108.088 133.144 107.777 133.389C107.653 133.487 107.497 133.536 107.357 133.536Z" fill="white"/>
<path d="M113.33 58.8105C113.035 58.8105 112.755 58.6145 112.661 58.3042C112.537 57.9122 112.739 57.4875 113.113 57.3732L132.292 50.8236C132.666 50.6929 133.07 50.9052 133.179 51.2972C133.304 51.6892 133.101 52.1139 132.728 52.2282L113.548 58.7779C113.47 58.7942 113.408 58.8105 113.33 58.8105Z" fill="white"/>
<path d="M35.148 85.4829C34.8525 85.4829 34.5725 85.2869 34.4792 84.9766C34.3547 84.5846 34.557 84.1599 34.9303 84.0456L48.7281 79.3415C49.1014 79.2109 49.5059 79.4232 49.6148 79.8152C49.7392 80.2072 49.5369 80.6319 49.1636 80.7462L35.3658 85.4502C35.3036 85.4665 35.2258 85.4829 35.148 85.4829Z" fill="white"/>
<path d="M55.7126 58.9085C55.4948 58.9085 55.277 58.7942 55.137 58.5982L46.6126 46.2665C46.3793 45.9399 46.457 45.4662 46.7681 45.2212C47.0792 44.9762 47.5304 45.0578 47.7637 45.3845L56.2881 57.7162C56.5215 58.0429 56.4437 58.5165 56.1326 58.7615C56.0082 58.8595 55.8526 58.9085 55.7126 58.9085Z" fill="white"/>
<path d="M77.6148 58.9085C77.4748 58.9085 77.3192 58.8595 77.1948 58.7615C76.8837 58.5165 76.8059 58.0592 77.0393 57.7162L85.5637 45.3845C85.797 45.0578 86.2326 44.9762 86.5593 45.2212C86.8704 45.4662 86.9481 45.9235 86.7148 46.2665L78.1904 58.5982C78.0504 58.7942 77.8326 58.9085 77.6148 58.9085Z" fill="white"/>
<path d="M98.1792 85.4829C98.1014 85.4829 98.0392 85.4665 97.9614 85.4502L84.1636 80.7462C83.7903 80.6155 83.5881 80.2072 83.7125 79.8152C83.837 79.4232 84.2414 79.2109 84.5992 79.3415L98.397 84.0456C98.7703 84.1762 98.9725 84.5846 98.8481 84.9766C98.7547 85.2869 98.4747 85.4829 98.1792 85.4829Z" fill="white"/>
<path d="M19.9969 58.8105C19.9192 58.8105 19.857 58.7942 19.7792 58.7779L0.599205 52.2282C0.225871 52.0975 0.0235885 51.6892 0.148033 51.2972C0.272477 50.9052 0.661378 50.6929 1.03471 50.8236L20.2147 57.3732C20.5881 57.5039 20.7903 57.9122 20.6658 58.3042C20.5725 58.6145 20.308 58.8105 19.9969 58.8105Z" fill="white"/>
<path d="M66.6636 94.2865C66.5236 94.2865 66.3681 94.2375 66.2437 94.1395L48.5259 80.6319C48.277 80.4359 48.1681 80.1092 48.2615 79.7989L55.0281 57.9285C55.1214 57.6182 55.4014 57.4222 55.697 57.4222H77.5992C77.9103 57.4222 78.1748 57.6345 78.2681 57.9285L85.0347 79.7989C85.1281 80.1092 85.0192 80.4359 84.7703 80.6319L67.0525 94.1395C66.9592 94.2375 66.8192 94.2865 66.6636 94.2865ZM49.7703 79.7499L66.6636 92.6205L83.557 79.7499L77.1014 58.9085H56.2259L49.7703 79.7499Z" fill="white"/>
<path d="M107.357 133.536H25.9704C25.6592 133.536 25.3948 133.323 25.3014 133.029L0.148042 51.7709C0.054709 51.4605 0.163666 51.1339 0.412555 50.9379L66.2437 0.712852C66.4926 0.516852 66.8347 0.516852 67.0836 0.712852L132.93 50.9379C133.179 51.1339 133.288 51.4605 133.195 51.7709L108.041 133.029C107.933 133.323 107.668 133.536 107.357 133.536ZM26.4992 132.049H106.844L131.67 51.8035L66.6636 2.21554L1.65698 51.8035L26.4992 132.049Z" fill="white"/>
<path d="M95.5037 116.418C95.457 116.418 95.3948 116.418 95.3481 116.402L66.6637 109.558L37.9792 116.402C37.777 116.451 37.5748 116.402 37.4037 116.271C37.2325 116.141 37.1392 115.945 37.1081 115.732L34.4482 84.9766L19.3904 58.4512C19.2815 58.2715 19.2659 58.0429 19.3281 57.8469C19.3903 57.6345 19.5303 57.4712 19.717 57.3895L46.7526 45.2212L66.1192 21.9789C66.3837 21.6522 66.9126 21.6522 67.1926 21.9789L86.5593 45.2212L113.595 57.3895C113.781 57.4712 113.921 57.6345 113.984 57.8469C114.046 58.0592 114.03 58.2715 113.921 58.4512L98.8637 84.9766L96.2036 115.732C96.1881 115.945 96.0793 116.141 95.9082 116.271C95.7993 116.369 95.6593 116.418 95.5037 116.418ZM66.6637 108.039C66.7103 108.039 66.7726 108.039 66.8193 108.056L94.8659 114.752L97.4637 84.6662C97.4793 84.5519 97.5104 84.4539 97.5571 84.3559L112.288 58.4022L85.8437 46.5115C85.7503 46.4625 85.6571 46.3972 85.5948 46.3155L66.6481 23.5795L47.7014 46.3155C47.6392 46.3972 47.5459 46.4625 47.4526 46.5115L21.0081 58.4022L35.7392 84.3559C35.8014 84.4539 35.8325 84.5519 35.8325 84.6662L38.4304 114.752L66.477 108.056C66.5548 108.039 66.617 108.039 66.6637 108.039Z" fill="white"/>
<path d="M36.0503 118.591C35.8947 118.591 35.7548 118.476 35.7081 118.313L19.6548 58.1572C19.6081 57.9612 19.7169 57.7489 19.9036 57.6999C20.0903 57.6345 20.2925 57.7652 20.3392 57.9612L36.3925 118.117C36.4392 118.313 36.3303 118.525 36.1436 118.574C36.1125 118.591 36.0814 118.591 36.0503 118.591Z" fill="white"/>
<path d="M32.1926 124.193C32.0215 124.193 31.8814 124.062 31.8503 123.899L19.6704 58.1572C19.6393 57.9612 19.7637 57.7652 19.9504 57.7162C20.1682 57.6672 20.3236 57.8142 20.3703 58.0102L32.5503 123.752C32.5814 123.948 32.457 124.144 32.2703 124.193C32.2237 124.193 32.2081 124.193 32.1926 124.193Z" fill="white"/>
<path d="M28.0237 130.187C27.8526 130.187 27.6969 130.057 27.6658 129.861L19.6392 58.1082C19.6236 57.8959 19.7481 57.7162 19.9503 57.6999C20.137 57.6509 20.3237 57.8305 20.3392 58.0265L28.3658 129.779C28.3814 129.991 28.2569 130.171 28.0547 130.187C28.0547 130.187 28.0392 130.187 28.0237 130.187Z" fill="white"/>
<path d="M21.8637 119.881C21.677 119.881 21.5215 119.718 21.5059 119.522L19.6392 58.0756C19.6392 57.8632 19.7792 57.6999 19.9814 57.6999C19.9814 57.6999 19.9814 57.6999 19.997 57.6999C20.1836 57.6999 20.3393 57.8632 20.3548 58.0592L22.2214 119.505C22.237 119.718 22.0814 119.881 21.8637 119.881C21.8792 119.881 21.8792 119.881 21.8637 119.881Z" fill="white"/>
<path d="M16.6992 103.172C16.6837 103.172 16.6838 103.172 16.6682 103.172C16.466 103.156 16.3259 102.976 16.3415 102.78L19.6548 58.0592C19.6704 57.8469 19.8415 57.6835 20.0282 57.7162C20.2304 57.7325 20.3704 57.9122 20.3549 58.1082L17.0415 102.829C17.0415 103.025 16.8859 103.172 16.6992 103.172Z" fill="white"/>
<path d="M13.5104 92.8655C13.4948 92.8655 13.4637 92.8655 13.4482 92.8655C13.2615 92.8329 13.1371 92.6369 13.1682 92.4246L18.7526 62.8285L11.3171 84.4539C11.2548 84.6499 11.0526 84.7479 10.8659 84.6825C10.6792 84.6172 10.5859 84.4049 10.6481 84.2089L19.6704 57.9449C19.7326 57.7652 19.9192 57.6672 20.0903 57.7162C20.277 57.7652 20.3859 57.9612 20.3393 58.1409L13.8371 92.5716C13.8215 92.7349 13.6659 92.8655 13.5104 92.8655Z" fill="white"/>
<path d="M8.82813 77.7572C8.76591 77.7572 8.70369 77.7409 8.64147 77.7082C8.47036 77.5939 8.42367 77.3815 8.517 77.2019L18.4259 60.0682L6.99259 70.9625C6.85259 71.0932 6.61924 71.0932 6.4948 70.9299C6.37035 70.7829 6.37038 70.5379 6.52594 70.4072L19.7637 57.7815C19.9037 57.6508 20.0904 57.6509 20.2304 57.7652C20.3704 57.8795 20.4015 58.0918 20.3081 58.2388L9.13926 77.5612C9.06148 77.6919 8.95258 77.7572 8.82813 77.7572Z" fill="white"/>
<path d="M5.06368 65.5725C4.92368 65.5725 4.7992 65.4909 4.73698 65.3602C4.6592 65.1642 4.73705 64.9518 4.90816 64.8702L18.2392 58.5002L3.01034 58.9739C3.01034 58.9739 3.01032 58.9739 2.99476 58.9739C2.8081 58.9739 2.65257 58.8105 2.63702 58.6145C2.63702 58.4022 2.77697 58.2388 2.97919 58.2388L19.9659 57.6999C20.1059 57.6835 20.277 57.8142 20.3237 57.9938C20.3548 58.1735 20.277 58.3369 20.1214 58.4185L5.18815 65.5562C5.15704 65.5725 5.11035 65.5725 5.06368 65.5725Z" fill="white"/>
<path d="M36.797 104.07C36.657 104.07 36.517 103.972 36.4703 103.825L19.6859 58.2062C19.6081 58.0102 19.7014 57.7979 19.8881 57.7325C20.0747 57.6509 20.277 57.7489 20.3392 57.9449L37.1236 103.564C37.2014 103.76 37.1081 103.972 36.9214 104.038C36.8747 104.054 36.8281 104.07 36.797 104.07Z" fill="white"/>
</svg>
