<svg width="132" height="116" viewBox="0 0 132 116" fill="none" xmlns="http://www.w3.org/2000/svg">
<path d="M80.2356 115.369C80.049 115.369 79.8623 115.288 79.7223 115.141L68.8334 102.874L5.10226 87.4229C4.7756 87.3412 4.54226 87.0146 4.55781 86.6552L6.96895 35.9076L0.684493 3.89424C0.637826 3.6819 0.684487 3.45323 0.824487 3.2899C0.948932 3.11023 1.15115 3.01223 1.35337 3.01223L32.7445 2.03224L71.7734 0.333569L72.1311 0.349905L84.2956 0.937906H118.689L131.071 1.6729C131.336 1.68923 131.569 1.85257 131.678 2.09757C131.787 2.34257 131.756 2.63657 131.6 2.86524L109.387 33.3759V78.3742C109.387 78.4722 109.371 78.5702 109.324 78.6682L101.36 98.0232C101.313 98.1376 101.236 98.2356 101.142 98.3172L80.6556 115.206C80.5467 115.32 80.3912 115.369 80.2356 115.369ZM80.3134 113.622L100.147 97.2719L107.971 78.2436V33.1309C107.971 32.9676 108.018 32.8042 108.111 32.6736L129.656 3.06123L118.642 2.4079H84.2489L72.38 1.83623L27.0823 53.6946L80.3134 113.622ZM5.98894 86.1162L67.1067 100.931L25.62 54.2009C25.3712 53.9232 25.3712 53.4822 25.62 53.1882L70.4667 1.86891L32.7912 3.50224L2.24005 4.44956L8.36894 35.6952C8.3845 35.7606 8.38451 35.8259 8.38451 35.8749L5.98894 86.1162Z" fill="white"/>
<path d="M80.2356 115.369C79.8778 115.369 79.5823 115.092 79.5356 114.716L72.0223 53.1229L71.3845 1.0849C71.3845 0.676567 71.6956 0.333568 72.0845 0.333568C72.3956 0.317235 72.8001 0.66023 72.8001 1.06856L73.4223 53.0249L80.9201 114.536C80.9668 114.945 80.7023 115.32 80.3134 115.369C80.2978 115.369 80.2667 115.369 80.2356 115.369Z" fill="white"/>
<path d="M32.8067 46.8019C32.7289 46.8019 32.6356 46.7856 32.5578 46.7529L7.42009 36.5446C7.06231 36.3976 6.87563 35.9729 7.01563 35.5809C7.15563 35.2052 7.57562 35.0092 7.9334 35.1562L33.0712 45.3646C33.429 45.5116 33.6156 45.9362 33.4756 46.3282C33.3512 46.6222 33.0867 46.8019 32.8067 46.8019Z" fill="white"/>
<path d="M35.5912 94.7892C35.2645 94.7892 34.9845 94.5606 34.9067 94.2176L25.449 53.8579C25.3556 53.4659 25.5889 53.0576 25.9623 52.9596C26.3356 52.8616 26.7245 53.1066 26.8178 53.4986L36.2756 93.8582C36.3689 94.2502 36.1356 94.6586 35.7623 94.7566C35.7001 94.7892 35.6534 94.7892 35.5912 94.7892Z" fill="white"/>
<path d="M49.0467 28.1982C48.8134 28.1982 48.5956 28.0839 48.4556 27.8552L33.0868 3.11023C32.869 2.76723 32.9623 2.3099 33.2889 2.08124C33.6156 1.85257 34.0512 1.95057 34.2689 2.29357L49.6378 27.0386C49.8556 27.3816 49.7623 27.8389 49.4356 28.0676C49.3112 28.1656 49.1712 28.1982 49.0467 28.1982Z" fill="white"/>
<path d="M72.7223 53.7762C72.4112 53.7762 72.1156 53.5639 72.0378 53.2209C71.9289 52.8289 72.1623 52.4206 72.5356 52.3062L93.0378 46.5732L108.204 32.5592C108.5 32.2816 108.951 32.3142 109.2 32.6246C109.465 32.9349 109.433 33.4086 109.138 33.6699L93.8467 47.7982C93.769 47.8799 93.66 47.9289 93.5667 47.9616L72.9089 53.7436C72.8467 53.7762 72.7845 53.7762 72.7223 53.7762Z" fill="white"/>
<path d="M100.707 98.4806C100.365 98.4806 100.053 98.2192 100.007 97.8436L92.6801 47.3736C92.6645 47.2429 92.6801 47.0959 92.7267 46.9816L98.8245 31.6936L90.8289 33.3922C90.4556 33.4576 90.0667 33.2126 89.9889 32.8042C89.9112 32.3959 90.1601 32.0039 90.549 31.9222L99.8511 29.9459C100.1 29.8806 100.364 29.9949 100.536 30.2072C100.707 30.4196 100.738 30.7136 100.644 30.9586L94.0956 47.3409L101.407 97.6149C101.469 98.0232 101.204 98.3989 100.816 98.4642C100.784 98.4806 100.753 98.4806 100.707 98.4806Z" fill="white"/>
<path d="M84.0779 50.6076C83.9845 50.6076 83.9067 50.5912 83.8134 50.5586C83.4556 50.4116 83.2689 49.9706 83.4245 49.5949L89.7401 33.1799L72.2245 28.1982C71.8512 28.0839 71.6179 27.6756 71.7267 27.2836C71.8356 26.8916 72.209 26.6466 72.5978 26.7609L90.8756 31.9549C91.0779 32.0039 91.2334 32.1509 91.3268 32.3469C91.4201 32.5429 91.4201 32.7552 91.3423 32.9512L84.7312 50.1502C84.6223 50.4279 84.3579 50.6076 84.0779 50.6076Z" fill="white"/>
<path d="M90.7045 33.4086C90.3778 33.4086 90.0823 33.1636 90.02 32.8206L83.5801 1.83623C83.5023 1.42789 83.7356 1.03589 84.1245 0.954226C84.5134 0.856226 84.8867 1.11757 84.9645 1.5259L91.4045 32.5102C91.4823 32.9186 91.2489 33.3106 90.8601 33.3922C90.7978 33.3922 90.7512 33.4086 90.7045 33.4086Z" fill="white"/>
<path d="M99.9911 31.4322C99.8512 31.4322 99.7267 31.3996 99.6023 31.3016C99.2756 31.0729 99.1823 30.6156 99.4 30.2726L117.647 1.24823C117.864 0.905233 118.3 0.807237 118.627 1.0359C118.953 1.26457 119.047 1.7219 118.829 2.0649L100.582 31.0892C100.458 31.3179 100.224 31.4322 99.9911 31.4322Z" fill="white"/>
<path d="M66.4534 101.911C66.3756 101.911 66.3134 101.894 66.2512 101.845L30.9401 75.3852C30.7845 75.2709 30.7378 75.0259 30.8623 74.8626C30.9712 74.6992 31.189 74.6502 31.3601 74.7809L62.2068 97.8926L28.4823 64.9809C28.3423 64.8339 28.3268 64.6052 28.4668 64.4582C28.6068 64.3112 28.8245 64.3112 28.9645 64.4419L66.7179 101.274C66.8579 101.404 66.8734 101.633 66.749 101.78C66.6712 101.862 66.5623 101.911 66.4534 101.911Z" fill="white"/>
<path d="M66.0334 101.584C65.9868 101.584 65.9401 101.584 65.909 101.551L34.0667 88.3702C33.8801 88.2886 33.8023 88.0762 33.8645 87.8966C33.9423 87.7006 34.1445 87.6026 34.3156 87.6842L60.9001 98.6766L32.6356 82.4576C32.4645 82.3596 32.4023 82.1309 32.4956 81.9512C32.589 81.7716 32.8068 81.7062 32.9779 81.8042L66.2045 100.865C66.3756 100.963 66.4379 101.176 66.3601 101.355C66.2979 101.502 66.1579 101.584 66.0334 101.584Z" fill="white"/>
<path d="M93.0845 104.393C92.929 104.393 92.789 104.279 92.7423 104.116L79.8934 51.0159C79.8468 50.8199 79.9556 50.6239 80.1268 50.5749C80.2979 50.5096 80.5001 50.6076 80.5623 50.8036L98.1867 99.9506C98.249 100.147 98.1712 100.359 97.9846 100.424C97.7979 100.49 97.5956 100.408 97.5334 100.212L82.149 57.3042L93.4267 103.92C93.4734 104.116 93.3645 104.328 93.1623 104.377C93.1468 104.393 93.1156 104.393 93.0845 104.393Z" fill="white"/>
<path d="M86.7845 109.587C86.6134 109.587 86.4578 109.44 86.4267 109.261L80.3445 55.2462L78.2445 95.5569C78.229 95.7529 78.0734 95.8999 77.8867 95.8999H77.8712C77.6689 95.8836 77.5289 95.7202 77.5445 95.5079L79.8778 50.8852C79.8934 50.6892 80.0334 50.5422 80.2201 50.5422C80.2201 50.5422 80.2201 50.5422 80.2356 50.5422C80.4223 50.5422 80.5623 50.6892 80.5934 50.8689L87.1423 109.163C87.1734 109.359 87.0334 109.555 86.8312 109.571C86.8156 109.587 86.8001 109.587 86.7845 109.587Z" fill="white"/>
<path d="M75.3201 74.6829C75.289 74.6829 75.2734 74.6829 75.2423 74.6829C75.0556 74.6339 74.9312 74.4379 74.9779 74.2419L79.3956 53.2699L74.2157 62.8249C74.1223 63.0046 73.9045 63.0699 73.7334 62.9556C73.5623 62.8576 73.5001 62.6289 73.609 62.4492L79.9556 50.7709C80.0334 50.6076 80.2201 50.5422 80.3912 50.6076C80.5467 50.6729 80.6401 50.8526 80.609 51.0322L75.6934 74.4052C75.6312 74.5686 75.4756 74.6829 75.3201 74.6829Z" fill="white"/>
<path d="M99.12 87.1126C98.98 87.1126 98.8401 87.0146 98.7934 86.8676C98.4356 86.0509 86.3178 63.1516 79.9245 51.1139C79.8312 50.9506 79.8778 50.7382 80.0334 50.6239C80.1734 50.5096 80.3912 50.5422 80.5 50.6892L97.1445 71.0732C97.269 71.2366 97.2534 71.4652 97.1134 71.5959C96.9578 71.7266 96.7401 71.7102 96.6156 71.5632L82.2578 53.9722C99.4312 86.3939 99.4623 86.5899 99.4778 86.6716C99.5089 86.8676 99.3689 87.0636 99.1823 87.0962C99.1512 87.1126 99.1356 87.1126 99.12 87.1126Z" fill="white"/>
<path d="M95.2467 60.4566C95.1845 60.4566 95.1223 60.4402 95.0756 60.4076L80.0645 51.2609C79.909 51.1629 79.8467 50.9832 79.909 50.8036C79.9712 50.6402 80.1267 50.5259 80.2978 50.5749L94.3756 53.3352C94.5623 53.3679 94.7023 53.5639 94.6556 53.7762C94.6245 53.9722 94.4534 54.1192 94.2356 54.0702L82.1645 51.7182L95.4023 59.7869C95.5734 59.8849 95.6356 60.1136 95.5267 60.2932C95.4801 60.3912 95.3712 60.4566 95.2467 60.4566Z" fill="white"/>
<path d="M101.391 40.2196C101.329 40.2196 101.251 40.2032 101.204 40.1542C101.142 40.1052 101.08 40.0726 101.096 39.8439H101.033L100.971 28.5412C100.971 28.3289 101.127 28.1656 101.329 28.1656C101.531 28.1656 101.687 28.3289 101.687 28.5412L101.733 37.1979C102.511 34.4376 104.16 28.9822 107.458 18.1532C107.52 17.9572 107.707 17.8592 107.909 17.9082C108.096 17.9736 108.205 18.1859 108.142 18.3819C105.669 26.4996 101.967 38.7496 101.749 39.8112V39.8439C101.749 39.9582 101.702 40.0562 101.625 40.1216C101.562 40.1869 101.484 40.2196 101.391 40.2196Z" fill="white"/>
<path d="M101.391 40.2196C101.313 40.2196 101.236 40.1869 101.173 40.1379L97.3934 36.9529C97.2378 36.8222 97.2223 36.5936 97.3312 36.4302C97.4556 36.2669 97.6734 36.2506 97.829 36.3649L101.282 39.2722L121.178 1.64024C121.271 1.46057 121.489 1.39523 121.66 1.49323C121.831 1.59123 121.893 1.81989 121.8 1.99956L101.702 40.0236C101.656 40.1216 101.562 40.1869 101.453 40.2032C101.438 40.2196 101.422 40.2196 101.391 40.2196Z" fill="white"/>
<path d="M95.869 41.3956C95.6979 41.3956 95.5579 41.2812 95.5267 41.1016C95.4801 40.9056 95.6045 40.7096 95.8067 40.6606L101.205 39.5172L127.385 1.98323C127.509 1.8199 127.727 1.78723 127.882 1.90156C128.038 2.0159 128.069 2.2609 127.96 2.42423L101.702 40.0726C101.656 40.1379 101.578 40.2032 101.485 40.2196L95.9623 41.3956C95.9156 41.3956 95.8845 41.3956 95.869 41.3956Z" fill="white"/>
</svg>
