<svg width="133" height="138" viewBox="0 0 133 138" fill="none" xmlns="http://www.w3.org/2000/svg">
<path d="M57.7186 137.823C57.6098 137.823 57.5009 137.79 57.392 137.741L25.192 120.624C25.0987 120.575 25.0053 120.493 24.9431 120.395L0.800922 85.2784C0.692033 85.1151 0.64534 84.9027 0.676451 84.7067L5.32755 59.7331C5.37421 59.5207 5.49863 59.3248 5.68529 59.2268C5.87196 59.1124 6.08976 59.1124 6.29198 59.1941L41.8831 74.2207C42.0231 74.2697 42.132 74.3677 42.2098 74.4984L68.872 116.932C69.012 117.161 69.0275 117.471 68.9031 117.7L58.3409 137.447C58.2009 137.692 57.9675 137.823 57.7186 137.823ZM26.0008 119.382L57.4387 136.108L67.4564 117.373L41.152 75.5111L6.5564 60.9091L2.12311 84.6904L26.0008 119.382Z" fill="white"/>
<path d="M61.841 26.2498C61.7787 26.2498 61.701 26.2334 61.6387 26.2171L25.6899 14.9471C25.441 14.8654 25.2543 14.6531 25.2077 14.3917C25.1454 14.1304 25.2387 13.8527 25.4254 13.6731L37.4032 2.40308C37.5276 2.28875 37.6831 2.22342 37.8542 2.20709L76.6654 0.900391C76.7276 0.900391 76.7898 0.900407 76.852 0.91674L110.841 9.55709C111.214 9.65509 111.448 10.0471 111.37 10.4391L108.508 23.3914C108.43 23.7181 108.165 23.9467 107.854 23.963L61.8876 26.2171C61.8565 26.2497 61.841 26.2498 61.841 26.2498ZM27.292 13.9018L61.9187 24.7471L107.232 22.5258L109.814 10.8311L76.6032 2.38673L38.1498 3.69343L27.292 13.9018Z" fill="white"/>
<path d="M57.7186 137.823C57.3764 137.823 57.0808 137.561 57.0186 137.202C56.9564 136.794 57.2209 136.418 57.6097 136.353L97.0587 129.787L111.603 111.771L68.3743 118.076C68.0009 118.125 67.6276 117.847 67.5809 117.439C67.5342 117.03 67.7986 116.655 68.1875 116.606L113.252 110.04C113.548 109.991 113.828 110.154 113.968 110.415C114.108 110.693 114.076 111.02 113.89 111.248L97.9764 130.963C97.8675 131.093 97.712 131.191 97.5409 131.224L57.8431 137.823C57.7964 137.823 57.7498 137.823 57.7186 137.823Z" fill="white"/>
<path d="M6.02764 60.6151C5.93431 60.6151 5.82542 60.5988 5.73208 60.5498C5.37431 60.3864 5.2187 59.9291 5.38981 59.5697L25.2387 13.9344C25.3943 13.5587 25.8299 13.3954 26.1721 13.5751C26.5299 13.7384 26.6854 14.1958 26.5143 14.5551L6.66538 60.1904C6.55649 60.4518 6.30764 60.6151 6.02764 60.6151Z" fill="white"/>
<path d="M41.6187 75.6417C41.5254 75.6417 41.432 75.6254 41.3387 75.5764C40.9809 75.413 40.8097 74.972 40.9653 74.5964L61.172 25.2044C61.3276 24.8287 61.7475 24.6491 62.1053 24.8124C62.4631 24.9757 62.6342 25.4167 62.4786 25.7924L42.272 75.1844C42.1631 75.4621 41.8987 75.6417 41.6187 75.6417Z" fill="white"/>
<path d="M113.345 111.51C113.252 111.51 113.159 111.493 113.065 111.444C112.708 111.281 112.537 110.84 112.692 110.464L131.063 64.9761V47.6791L110.063 10.6677C109.861 10.3084 109.97 9.85106 110.312 9.65506C110.639 9.44273 111.09 9.55707 111.276 9.9164L132.385 47.1074C132.448 47.2217 132.479 47.3524 132.479 47.4831V65.1394C132.479 65.2374 132.463 65.3354 132.417 65.4334L113.999 111.069C113.874 111.33 113.625 111.51 113.345 111.51Z" fill="white"/>
<path d="M131.763 65.8744C131.53 65.8744 131.297 65.7437 131.157 65.515L107.185 23.6364C106.983 23.2771 107.092 22.8197 107.434 22.6237C107.761 22.4114 108.212 22.5257 108.399 22.8851L132.37 64.7637C132.572 65.123 132.463 65.5804 132.121 65.7764C132.012 65.8417 131.888 65.8744 131.763 65.8744Z" fill="white"/>
<path d="M97.4321 130.848C97.401 130.848 97.3543 130.848 97.3232 130.832C97.1521 130.767 97.0587 130.587 97.0898 130.407L100.341 112.539C100.372 112.343 100.559 112.196 100.761 112.245C100.948 112.277 101.072 112.473 101.041 112.686L98.2409 128.039L106.33 111.575C106.423 111.395 106.641 111.314 106.812 111.412C106.983 111.51 107.061 111.738 106.968 111.918L97.7587 130.652C97.6809 130.783 97.5565 130.848 97.4321 130.848Z" fill="white"/>
<path d="M97.4321 130.848C97.3077 130.848 97.1831 130.783 97.1209 130.652L88.7676 114.482C88.6742 114.303 88.7364 114.074 88.9075 113.976C89.0786 113.878 89.2964 113.943 89.3897 114.123L96.8253 128.513L94.8965 113.453C94.8654 113.257 95.0054 113.061 95.2076 113.029C95.3943 112.996 95.5809 113.143 95.612 113.355L97.8054 130.424C97.8209 130.603 97.7275 130.767 97.5564 130.832C97.4942 130.848 97.4632 130.848 97.4321 130.848Z" fill="white"/>
<path d="M97.4321 130.848C97.3699 130.848 97.2921 130.832 97.2454 130.783L76.2298 116.459C76.0587 116.344 76.012 116.116 76.1209 115.952C76.2298 115.773 76.4476 115.74 76.6031 115.838L94.9121 128.317L82.8565 115.43C82.7165 115.283 82.7165 115.054 82.8565 114.907C82.9965 114.76 83.2142 114.76 83.3542 114.907L97.6809 130.211C97.8053 130.342 97.8209 130.554 97.6965 130.701C97.6343 130.799 97.5254 130.848 97.4321 130.848Z" fill="white"/>
<path d="M97.4321 130.848C97.401 130.848 97.3699 130.848 97.3388 130.832L65.7299 122.29C65.5432 122.241 65.4187 122.028 65.4809 121.832C65.5276 121.636 65.7299 121.506 65.9165 121.571L93.9477 129.15L70.2876 117.357C70.1165 117.275 70.0388 117.047 70.1166 116.867C70.1943 116.687 70.4121 116.606 70.5832 116.687L97.5721 130.146C97.7432 130.228 97.8209 130.424 97.7587 130.603C97.712 130.75 97.5721 130.848 97.4321 130.848Z" fill="white"/>
<path d="M60.5654 132.155C60.3787 132.155 60.2232 131.992 60.2076 131.796C60.2076 131.583 60.3476 131.42 60.5498 131.404L92.4854 130.277L63.3187 126.912C63.1321 126.896 62.9921 126.7 63.0076 126.504C63.0232 126.308 63.1943 126.144 63.3965 126.177L97.4631 130.113C97.6498 130.13 97.7898 130.309 97.7742 130.505C97.7742 130.701 97.6187 130.848 97.4321 130.865L60.5654 132.155Z" fill="white"/>
<path d="M37.1853 73.3877C37.1231 73.3877 37.0765 73.3714 37.0142 73.3387C36.8431 73.2407 36.781 73.0121 36.8743 72.8324L58.2476 31.6234L32.4253 71.0847C32.3165 71.248 32.0987 71.297 31.9276 71.1827C31.772 71.0684 31.7253 70.8397 31.8342 70.6601L61.5298 25.2697C61.6387 25.1064 61.8409 25.0574 62.012 25.1554C62.1676 25.2534 62.2298 25.4821 62.1365 25.6454L37.4965 73.1591C37.4342 73.3224 37.3098 73.3877 37.1853 73.3877Z" fill="white"/>
<path d="M27.7431 69.4024C27.6653 69.4024 27.5876 69.3697 27.5254 69.3207C27.3698 69.1901 27.3542 68.9614 27.4787 68.7981L56.5054 31.7377L23.2165 67.2791C23.0765 67.4261 22.8587 67.4261 22.7187 67.2791C22.5787 67.1321 22.5787 66.9034 22.7187 66.7564L61.592 25.2371C61.732 25.0901 61.9342 25.0901 62.0742 25.2207C62.2142 25.3514 62.2298 25.5801 62.1053 25.7271L28.0076 69.2554C27.9454 69.3534 27.8364 69.4024 27.7431 69.4024Z" fill="white"/>
<path d="M17.632 65.1394C17.5387 65.1394 17.4298 65.0904 17.3676 65.0087C17.2431 64.8454 17.2587 64.6167 17.4143 64.4861L55.1365 30.9701L12.5298 62.8201C12.3743 62.9344 12.1565 62.9017 12.032 62.7384C11.9231 62.5751 11.9542 62.3464 12.1098 62.2157L61.6231 25.2044C61.7787 25.0901 61.9965 25.1227 62.1054 25.2861C62.2298 25.4494 62.1988 25.6617 62.0587 25.7924L17.8498 65.0577C17.7876 65.1067 17.7098 65.1394 17.632 65.1394Z" fill="white"/>
<path d="M6.50979 60.4354C6.38535 60.4354 6.27644 60.3701 6.19866 60.2557C6.10533 60.0761 6.15202 59.8474 6.32313 59.7494L52.3675 30.9864L8.74979 54.3104C8.57868 54.4084 8.36091 54.3268 8.26758 54.1471C8.17424 53.9674 8.25198 53.7388 8.42309 53.6408L61.6698 25.1554C61.8409 25.0738 62.0431 25.1391 62.1365 25.3024C62.2298 25.4821 62.1676 25.6944 62.012 25.8087L6.68088 60.3701C6.63421 60.4191 6.57201 60.4354 6.50979 60.4354Z" fill="white"/>
<path d="M11.5187 47.6464C11.3787 47.6464 11.2543 47.5648 11.1921 47.4178C11.1143 47.2218 11.2076 47.0094 11.3787 46.9278L54.281 28.3731L14.3032 41.4724C14.1165 41.5377 13.9142 41.4234 13.8676 41.2274C13.8053 41.0314 13.9143 40.8191 14.1009 40.7701L61.7476 25.1554C61.9187 25.0901 62.1209 25.1881 62.1831 25.3841C62.2453 25.5638 62.1676 25.7761 61.9809 25.8577L11.6587 47.6301C11.612 47.6301 11.5653 47.6464 11.5187 47.6464Z" fill="white"/>
<path d="M16.5587 36.0498C16.3876 36.0498 16.2476 35.9354 16.2164 35.7557C16.1698 35.5597 16.2942 35.3638 16.4809 35.3148L54.9031 26.6908L18.8609 30.8721C18.6431 30.8884 18.4876 30.7415 18.472 30.5455C18.4565 30.3331 18.5965 30.1535 18.7831 30.1371L61.7942 25.1554C61.9964 25.1228 62.152 25.2698 62.1831 25.4658C62.2142 25.6618 62.0898 25.8414 61.9031 25.8904L16.6209 36.0661C16.6053 36.0334 16.5898 36.0498 16.5587 36.0498Z" fill="white"/>
<path d="M61.841 25.8741C61.8254 25.8741 61.8254 25.8741 61.841 25.8741L21.1943 25.4004C20.9921 25.4004 20.8365 25.2371 20.852 25.0248C20.852 24.8124 21.0076 24.6818 21.2099 24.6654L56.7543 25.0738L23.5742 19.8144C23.3876 19.7818 23.2476 19.6021 23.2787 19.3898C23.3098 19.1938 23.4809 19.0468 23.6831 19.0794L61.9032 25.1391C62.0898 25.1717 62.2143 25.3351 62.1987 25.5311C62.1676 25.7271 62.0121 25.8741 61.841 25.8741Z" fill="white"/>
</svg>
