<svg width="127" height="145" viewBox="0 0 127 145" fill="none" xmlns="http://www.w3.org/2000/svg">
<path d="M42.8801 126.684C42.8335 126.684 42.7712 126.684 42.7245 126.668C42.4912 126.602 42.289 126.423 42.2113 126.178L30.3424 89.6563L8.05124 56.32C7.91124 56.1077 7.88016 55.83 7.98905 55.6014C8.08238 55.3564 8.30012 55.193 8.53345 55.1603L125.511 38.0757C125.822 38.0267 126.102 38.19 126.242 38.484C126.382 38.7617 126.32 39.121 126.118 39.3333L43.3935 126.472C43.2535 126.619 43.0668 126.684 42.8801 126.684ZM9.87121 56.467L31.5557 88.905C31.6023 88.9703 31.6334 89.0193 31.649 89.101L43.1757 124.593L123.598 39.8724L9.87121 56.467Z" fill="white"/>
<path d="M42.8801 126.684C42.7246 126.684 42.5846 126.635 42.4602 126.537C42.2579 126.374 42.1491 126.112 42.1802 125.835L48.4335 79.105L8.30013 56.5323C8.06679 56.4017 7.91125 56.1404 7.92681 55.8464C7.92681 55.5687 8.09794 55.3074 8.33127 55.1931L36.6735 41.5057L58.9491 0.999014C58.9647 0.966347 58.9802 0.950033 58.9957 0.917367C59.0268 0.868367 59.058 0.835722 59.1046 0.786722C59.198 0.705055 59.2913 0.656012 59.4158 0.639678C59.4313 0.639678 59.4312 0.639678 59.4468 0.639678C59.5868 0.623345 59.7268 0.639692 59.8513 0.705025C59.9446 0.754025 60.0068 0.8357 60.0691 0.917367L82.9824 35.2827L125.573 38.0104C125.822 38.0267 126.04 38.1737 126.149 38.4024C126.258 38.6311 126.258 38.9087 126.133 39.1211L103.873 79.1704L115.945 115.577C116.038 115.839 115.976 116.116 115.805 116.329C115.789 116.361 115.758 116.378 115.727 116.41C115.649 116.476 115.556 116.525 115.462 116.557C115.416 116.574 115.369 116.574 115.322 116.574C115.291 116.574 115.26 116.574 115.229 116.574L71.7202 113.258L43.098 126.553C43.0824 126.668 42.9735 126.684 42.8801 126.684ZM49.7713 79.8727L43.7669 124.724L71.3936 111.886C71.5024 111.837 71.5957 111.821 71.7357 111.821L112.102 114.891L49.7713 79.8727ZM49.9735 78.3047L113.689 114.124L59.9446 3.8247L49.9735 78.3047ZM64.8602 10.6357L111.325 105.973L102.505 79.3827C102.442 79.1704 102.458 78.958 102.567 78.762L124.407 39.464L82.6246 36.7854C82.4068 36.769 82.2047 36.6547 82.0802 36.475L64.8602 10.6357ZM10.2291 55.9444L48.6512 77.5534L58.358 5.08235L37.7935 42.4857C37.7157 42.6164 37.6068 42.7307 37.4824 42.7961L10.2291 55.9444Z" fill="white"/>
<path d="M67.1158 144.945C66.8824 144.945 66.6647 144.83 66.5247 144.618L51.8091 121.931C51.5913 121.588 51.6691 121.131 51.9957 120.902C52.3224 120.673 52.758 120.755 52.9757 121.098L66.6646 142.217L84.1335 20.8114L75.2357 25.156C74.8935 25.3194 74.458 25.1724 74.3024 24.7967C74.1313 24.421 74.2868 23.98 74.6446 23.8167L84.7402 18.9004C84.9735 18.786 85.2535 18.8187 85.4557 18.982C85.658 19.1454 85.7668 19.423 85.7357 19.6843L67.8001 144.34C67.7535 144.634 67.5357 144.879 67.2557 144.961C67.2246 144.945 67.1624 144.945 67.1158 144.945Z" fill="white"/>
<path d="M1.48683 107.917C1.30017 107.917 1.12904 107.852 0.989044 107.705C0.75571 107.476 0.709032 107.1 0.880144 106.806L19.4223 72.5554C19.609 72.196 20.0446 72.0817 20.3868 72.2777C20.729 72.4737 20.8534 72.931 20.6512 73.2904L3.40014 105.157L30.6535 88.6764C44.8091 80.0361 48.1224 78.2557 49.1024 78.0107V77.978C50.2846 77.586 66.3068 67.9167 77.5379 61.073L52.8824 50.0644L12.4845 31.6077L18.8001 51.077C18.9245 51.469 18.7224 51.8937 18.3646 52.0244C18.0068 52.1551 17.5868 51.9427 17.4623 51.5671L10.6334 30.5134C10.5401 30.2357 10.6179 29.9254 10.8202 29.7294C11.0224 29.5334 11.3179 29.4844 11.5824 29.5987L53.4423 48.725L79.389 60.3054C79.6379 60.4197 79.809 60.6647 79.8246 60.9424C79.8401 61.2201 79.7001 61.4977 79.4668 61.6284C55.169 76.4591 50.4713 79.0724 49.3202 79.3827V79.4317C48.3246 79.7257 37.7779 86.0467 31.3534 89.9667L1.84458 107.803C1.72014 107.884 1.59572 107.917 1.48683 107.917Z" fill="white"/>
<path d="M37.7001 110.726C37.6846 110.726 37.6691 110.726 37.6535 110.726L1.44011 107.917C1.05123 107.884 0.755697 107.525 0.786808 107.117C0.817919 106.708 1.14457 106.414 1.54901 106.431L37.7623 109.24C38.1512 109.273 38.4468 109.632 38.4157 110.04C38.3846 110.432 38.0734 110.726 37.7001 110.726Z" fill="white"/>
<path d="M42.6468 32.898C42.6313 32.898 42.6158 32.898 42.6002 32.898L11.2246 31.0034C10.8357 30.9871 10.5401 30.6277 10.5557 30.2194C10.5712 29.811 10.898 29.4844 11.3024 29.5171L42.678 31.4117C43.0668 31.4281 43.3624 31.7874 43.3468 32.1957C43.3313 32.604 43.0201 32.898 42.6468 32.898Z" fill="white"/>
<path d="M89.8891 37.259C89.5779 37.259 89.2979 37.0467 89.2046 36.7363L84.3669 19.7823C84.258 19.3903 84.4602 18.9657 84.8335 18.8514C85.2068 18.7207 85.5957 18.9493 85.7202 19.3413L90.5579 36.2953C90.6668 36.6873 90.4646 37.112 90.0913 37.2264C90.0135 37.259 89.9513 37.259 89.8891 37.259Z" fill="white"/>
<path d="M108.431 95.7323C108.167 95.7323 107.918 95.569 107.793 95.3077C107.622 94.932 107.778 94.491 108.136 94.3113L116.536 90.13L78.689 61.5794C78.3779 61.3344 78.3002 60.877 78.5335 60.5504C78.7668 60.2074 79.2024 60.142 79.5135 60.387L118.34 89.6727C118.542 89.8197 118.651 90.081 118.636 90.3424C118.62 90.6037 118.465 90.8323 118.231 90.9467L108.758 95.667C108.633 95.716 108.54 95.7323 108.431 95.7323Z" fill="white"/>
<path d="M117.905 91.012C117.671 91.012 117.453 90.8977 117.313 90.6853L106.113 73.225C105.896 72.882 105.973 72.4247 106.3 72.196C106.611 71.9674 107.062 72.049 107.28 72.392L118.48 89.8524C118.698 90.1954 118.62 90.6527 118.294 90.8813C118.185 90.963 118.045 91.012 117.905 91.012Z" fill="white"/>
<path d="M67.1158 144.945C66.9913 144.945 66.8668 144.912 66.7579 144.847C66.4157 144.634 66.3068 144.193 66.4935 143.834L83.3091 113.127C83.5113 112.768 83.9313 112.654 84.2735 112.85C84.6157 113.062 84.7246 113.503 84.5379 113.862L67.7224 144.569C67.5979 144.814 67.3647 144.945 67.1158 144.945Z" fill="white"/>
<path d="M27.7445 47.0264C27.6512 47.0264 27.5735 46.9937 27.4957 46.9284L11.0223 30.5297C10.8823 30.3827 10.8668 30.154 11.0068 30.007C11.1468 29.86 11.3646 29.8437 11.5046 29.9907L27.9779 46.3893C28.1179 46.5363 28.1335 46.765 27.9935 46.912C27.9312 46.9937 27.8379 47.0264 27.7445 47.0264Z" fill="white"/>
<path d="M43.7357 51.1423C43.6268 51.1423 43.5335 51.0934 43.4557 50.9954L36.8912 42.3387C36.7667 42.1753 36.7979 41.9467 36.9535 41.816C37.109 41.6854 37.3268 41.718 37.4512 41.8813L44.0156 50.538C44.1401 50.7014 44.109 50.93 43.9535 51.0607C43.8912 51.1097 43.8134 51.1423 43.7357 51.1423Z" fill="white"/>
<path d="M58.4824 66.9204C58.3268 66.9204 58.2024 66.8224 58.1402 66.659L52.7891 49.509C52.7269 49.313 52.8358 49.1007 53.0069 49.0354C53.1935 48.97 53.3957 49.0681 53.458 49.264L58.7157 66.0874L79.0001 60.5994C79.1868 60.5341 79.3891 60.6647 79.4357 60.8607C79.4824 61.0567 79.3735 61.2691 79.1868 61.3181L58.5913 66.8877C58.5446 66.9204 58.5135 66.9204 58.4824 66.9204Z" fill="white"/>
<path d="M68.7335 56.7284C68.6246 56.7284 68.5313 56.6793 68.4691 56.5977C68.3446 56.4343 68.3601 56.2057 68.5157 56.075L81.1312 44.9847C81.2868 44.854 81.5046 44.8704 81.629 45.0337C81.7535 45.197 81.738 45.4257 81.5824 45.5563L68.9668 56.6467C68.889 56.6957 68.8113 56.7284 68.7335 56.7284Z" fill="white"/>
<path d="M78.5647 40.7544C78.4713 40.7544 78.3935 40.7217 78.3157 40.6563C78.1757 40.5093 78.1757 40.2807 78.3001 40.1337L82.438 35.5767C82.578 35.4297 82.7958 35.4297 82.9358 35.5603C83.0758 35.7073 83.0758 35.936 82.9513 36.083L78.7979 40.64C78.7513 40.7217 78.658 40.7544 78.5647 40.7544Z" fill="white"/>
<path d="M78.5646 30.2684C78.5023 30.2684 78.4246 30.252 78.3623 30.203C78.1912 30.0887 78.1601 29.86 78.2534 29.6803L84.7401 19.3577C84.849 19.178 85.0668 19.1454 85.2379 19.2434C85.409 19.3577 85.4401 19.5864 85.3468 19.766L78.8601 30.0887C78.7979 30.203 78.6735 30.2684 78.5646 30.2684Z" fill="white"/>
<path d="M64.4869 79.0723H49.2113C49.0713 79.0723 48.9468 78.9907 48.8846 78.86C48.8224 78.7293 48.838 78.5824 48.9313 78.468L58.2024 66.316C58.3268 66.1527 58.5446 66.1363 58.7001 66.2507C58.8557 66.3813 58.8712 66.61 58.7623 66.7734L49.9424 78.321H64.3157L78.8135 60.9423C78.9379 60.7953 79.1713 60.779 79.3113 60.9097C79.4513 61.0404 79.4668 61.2853 79.3424 61.4323L64.7357 78.9417C64.6735 79.0397 64.5802 79.0723 64.4869 79.0723Z" fill="white"/>
<path d="M74.5357 92.972C74.4268 92.972 74.3179 92.923 74.2557 92.825L64.1913 78.9417C64.0668 78.7783 64.0979 78.5497 64.2535 78.419C64.409 78.2884 64.6268 78.321 64.7513 78.4843L74.8157 92.3677C74.9401 92.531 74.909 92.7597 74.7535 92.8904C74.6913 92.9393 74.6134 92.972 74.5357 92.972Z" fill="white"/>
<path d="M76.8224 77.1451C76.6668 77.1451 76.5112 77.0307 76.4801 76.8674C76.4335 76.6714 76.5423 76.4591 76.7445 76.4264L94.0579 71.9837C94.2446 71.9184 94.4313 72.049 94.4779 72.2614C94.5246 72.4574 94.4157 72.6697 94.2135 72.7024L76.9002 77.1451C76.869 77.1451 76.8535 77.1451 76.8224 77.1451Z" fill="white"/>
<path d="M103.189 79.5297H97.4646C97.2623 79.5297 97.1068 79.3663 97.1068 79.154C97.1068 78.9417 97.2623 78.7784 97.4646 78.7784H103.189C103.391 78.7784 103.547 78.9417 103.547 79.154C103.531 79.3663 103.376 79.5297 103.189 79.5297Z" fill="white"/>
<path d="M117.905 90.6364C117.889 90.6364 117.873 90.6364 117.858 90.6364L106.238 88.8887C106.051 88.856 105.911 88.6764 105.942 88.4641C105.973 88.2681 106.145 88.1211 106.347 88.1537L117.967 89.9014C118.153 89.9341 118.293 90.1137 118.262 90.326C118.231 90.5057 118.091 90.6364 117.905 90.6364Z" fill="white"/>
<path d="M30.9957 89.7053C30.8712 89.7053 30.7468 89.6237 30.6845 89.5093C30.6068 89.3623 30.6379 89.1663 30.7623 89.052L45.0424 76.214C45.1979 76.0834 45.4156 76.0997 45.5401 76.2467C45.6645 76.41 45.649 76.6387 45.509 76.7693L32.3957 88.562L48.3402 84.1847C48.5268 84.1194 48.729 84.25 48.7757 84.446C48.8223 84.642 48.7135 84.8544 48.5268 84.9034L31.089 89.689C31.0423 89.689 31.0268 89.7053 30.9957 89.7053Z" fill="white"/>
<path d="M1.48682 107.541C1.36238 107.541 1.23791 107.476 1.17569 107.345C1.09791 107.182 1.14459 106.986 1.28459 106.872L28.569 85.7201C28.7246 85.6057 28.9423 85.6384 29.0668 85.8017C29.1757 85.965 29.1446 86.1937 28.989 86.3244L3.6334 105.957L32.8001 94.932C32.9867 94.8504 33.189 94.9647 33.2512 95.1607C33.3135 95.3567 33.2201 95.569 33.0334 95.6343L1.59563 107.525C1.56451 107.525 1.51793 107.541 1.48682 107.541Z" fill="white"/>
<path d="M71.6735 112.931C71.5179 112.931 71.3779 112.817 71.3312 112.654L67.8623 99.3747C67.8157 99.1787 67.9245 98.9664 68.1112 98.9174C68.3134 98.8684 68.5001 98.9827 68.5468 99.1787L72.0157 112.458C72.0623 112.654 71.9535 112.866 71.7668 112.915C71.7357 112.931 71.7046 112.931 71.6735 112.931Z" fill="white"/>
<path d="M67.1157 144.585C66.9446 144.585 66.789 144.455 66.7579 144.275L62.8846 116.557C62.8535 116.361 62.9935 116.165 63.1801 116.133C63.3823 116.116 63.5535 116.247 63.5846 116.443L67.4579 144.161C67.489 144.357 67.349 144.553 67.1623 144.585C67.1468 144.585 67.1313 144.585 67.1157 144.585Z" fill="white"/>
</svg>
