<svg width="131" height="129" viewBox="0 0 131 129" fill="none" xmlns="http://www.w3.org/2000/svg">
<path d="M61.3514 128.51C61.227 128.51 61.087 128.477 60.9781 128.396L6.78256 93.4588C6.58034 93.3281 6.45589 93.1158 6.44034 92.8708L0.66924 7.51281C0.638129 7.10447 0.933658 6.76146 1.32255 6.71246L66.7803 0.799805L129.438 8.54179C129.811 8.59079 130.091 8.95013 130.06 9.34213L122.687 96.5295C122.671 96.7908 122.516 97.0195 122.298 97.1338L61.6626 128.428C61.5537 128.477 61.4448 128.51 61.3514 128.51ZM7.84033 92.3971L61.3826 126.909L121.303 96.0068L128.583 9.96281L66.7492 2.30247L2.13147 8.1498L7.84033 92.3971Z" fill="white"/>
<path d="M62.0204 88.5098H62.0048C61.8026 88.5098 61.6003 88.3955 61.4759 88.2321L0.840324 7.9538C0.591435 7.62713 0.653668 7.1698 0.949224 6.90847C1.26033 6.64713 1.69587 6.71248 1.94475 7.02281L62.0514 86.6151L128.831 8.81946C129.096 8.50913 129.547 8.4928 129.827 8.77047C130.123 9.04813 130.138 9.5218 129.874 9.8158L62.5337 88.2648C62.4092 88.4118 62.2226 88.5098 62.0204 88.5098Z" fill="white"/>
<path d="M61.3514 128.51C61.3359 128.51 61.3359 128.51 61.3514 128.51C60.947 128.51 60.6359 128.167 60.6359 127.759L61.3047 87.7585C61.3047 87.3501 61.5692 86.9908 62.0203 87.0235C62.4092 87.0235 62.7203 87.3665 62.7203 87.7748L62.0514 127.775C62.0514 128.183 61.7248 128.51 61.3514 128.51Z" fill="white"/>
<path d="M106.463 104.859C106.323 104.859 106.198 104.778 106.136 104.647L86.2403 59.3058C86.1625 59.1261 86.2248 58.9301 86.3803 58.8321C86.5359 58.7341 86.7381 58.7831 86.847 58.9464L114.396 100.335C114.505 100.498 114.474 100.727 114.303 100.858C114.147 100.972 113.914 100.939 113.805 100.76L88.527 62.7848L106.758 104.337C106.836 104.516 106.758 104.745 106.587 104.827C106.571 104.859 106.525 104.859 106.463 104.859Z" fill="white"/>
<path d="M120.151 97.8035C120.058 97.8035 119.965 97.7708 119.887 97.6891L86.3181 59.4038C86.1937 59.2568 86.1937 59.0445 86.3181 58.8975C86.4426 58.7505 86.6448 58.7341 86.8003 58.8648L122.858 88.5261C123.014 88.6568 123.045 88.8855 122.92 89.0488C122.796 89.2121 122.578 89.2448 122.423 89.1141L89.8025 62.2785L120.416 97.1991C120.556 97.3461 120.54 97.5911 120.4 97.7218C120.323 97.7708 120.229 97.8035 120.151 97.8035Z" fill="white"/>
<path d="M123.387 80.2451C123.325 80.2451 123.278 80.2288 123.216 80.1961L86.4114 59.4691C86.2559 59.3711 86.1781 59.1751 86.2559 58.9955C86.3336 58.8158 86.5203 58.7341 86.6914 58.7831L124.18 71.5231C124.367 71.5884 124.46 71.8008 124.414 71.9968C124.351 72.1928 124.149 72.2908 123.963 72.2418L90.2225 60.7758L123.558 79.5428C123.729 79.6408 123.791 79.8695 123.698 80.0491C123.636 80.1798 123.511 80.2451 123.387 80.2451Z" fill="white"/>
<path d="M124.663 65.0388C124.647 65.0388 124.631 65.0388 124.616 65.0388L86.5203 59.5181C86.3337 59.4855 86.2092 59.3221 86.2092 59.1261C86.2248 58.9301 86.3648 58.7831 86.5514 58.7668L125.254 57.0355C125.44 57.0518 125.611 57.1825 125.627 57.3948C125.627 57.6071 125.487 57.7705 125.285 57.7868L90.5026 59.3385L124.709 64.2875C124.896 64.3201 125.036 64.4998 125.005 64.7121C124.989 64.9081 124.849 65.0388 124.663 65.0388Z" fill="white"/>
<path d="M86.2092 59.5181C86.0537 59.5181 85.9137 59.4201 85.867 59.2568C85.8203 59.0771 85.8981 58.8811 86.0692 58.7995L126.483 41.3228C126.669 41.2411 126.871 41.3391 126.949 41.5188C127.027 41.7148 126.934 41.9271 126.763 42.0088L90.0048 57.9011L125.845 49.8161C126.047 49.7835 126.218 49.8978 126.265 50.0938C126.311 50.2898 126.187 50.4858 126 50.5348L86.3181 59.4855C86.2559 59.5181 86.2248 59.5181 86.2092 59.5181Z" fill="white"/>
<path d="M86.567 59.5181C86.4581 59.5181 86.3492 59.4528 86.2715 59.3548C86.1626 59.1915 86.1937 58.9791 86.3492 58.8485L127.82 24.4505C127.976 24.3198 128.194 24.3525 128.318 24.5158C128.443 24.6791 128.411 24.9078 128.256 25.0385L90.8759 56.0391L127.074 33.6135C127.245 33.4991 127.463 33.5645 127.556 33.7441C127.649 33.9238 127.603 34.1525 127.431 34.2505L86.7381 59.4691C86.6914 59.5018 86.6292 59.5181 86.567 59.5181Z" fill="white"/>
<path d="M86.567 59.5181C86.4737 59.5181 86.3803 59.4855 86.3181 59.4038C86.1781 59.2568 86.1936 59.0118 86.3336 58.8811L128.427 17.1658C128.567 17.0188 128.8 17.0351 128.925 17.1821C129.065 17.3291 129.049 17.5741 128.909 17.7048L86.8159 59.4202C86.7537 59.4855 86.6603 59.5181 86.567 59.5181Z" fill="white"/>
<path d="M90.8448 112.912C90.8137 112.912 90.767 112.912 90.7359 112.895C90.5492 112.83 90.4403 112.618 90.5026 112.422L98.3114 86.5661C98.3581 86.3865 98.5448 86.2721 98.7003 86.3048C98.8714 86.3375 98.9959 86.4845 98.9959 86.6641V108.502C98.9959 108.714 98.8403 108.877 98.6381 108.877C98.4359 108.877 98.2803 108.714 98.2803 108.502V89.0651L91.1714 112.634C91.1403 112.814 91.0004 112.912 90.8448 112.912Z" fill="white"/>
<path d="M72.0381 122.614C71.9604 122.614 71.8826 122.581 71.8203 122.532C71.6648 122.401 71.6337 122.173 71.7581 122.009L98.3737 86.4518C98.4826 86.3048 98.6848 86.2558 98.8403 86.3701C98.9959 86.4681 99.0426 86.6805 98.9648 86.8601L83.9848 116.423C83.8915 116.603 83.6737 116.668 83.5026 116.57C83.3315 116.472 83.2693 116.244 83.3626 116.064L96.4603 90.1921L72.3181 122.467C72.2559 122.565 72.147 122.614 72.0381 122.614Z" fill="white"/>
<path d="M61.4136 124.476C61.3203 124.476 61.227 124.443 61.1647 124.361C61.0247 124.214 61.0403 123.986 61.1803 123.839L94.4848 90.3718L61.5692 115.754C61.4136 115.868 61.1959 115.835 61.0714 115.672C60.9625 115.509 60.9937 115.28 61.1492 115.149L98.4514 86.3701C98.607 86.2558 98.8092 86.2721 98.9336 86.4355C99.0581 86.5825 99.0425 86.8111 98.9025 86.9418L61.6625 124.361C61.5848 124.443 61.4914 124.476 61.4136 124.476Z" fill="white"/>
<path d="M61.6936 107.293C61.5692 107.293 61.4448 107.228 61.3826 107.097C61.2892 106.917 61.367 106.689 61.5381 106.591L94.9981 88.2648L61.8025 99.0938C61.6159 99.1591 61.4136 99.0448 61.3514 98.8488C61.2892 98.6528 61.3981 98.4405 61.5848 98.3751L98.5448 86.3048C98.7159 86.2558 98.9025 86.3375 98.9803 86.5171C99.0425 86.6968 98.9804 86.8928 98.8248 86.9908L61.8648 107.228C61.8026 107.277 61.7559 107.293 61.6936 107.293Z" fill="white"/>
<path d="M62.0203 91.4171C61.8492 91.4171 61.6936 91.2701 61.6625 91.0905C61.647 90.8781 61.787 90.6985 61.9737 90.6821L94.8425 86.7621L65.1159 84.4918C64.9603 84.4755 64.8359 84.3775 64.8047 84.2305C64.7581 84.0835 64.8203 83.9201 64.9447 83.8221L89.2426 65.3981C89.3981 65.2675 89.6159 65.3165 89.7403 65.4798C89.8492 65.6431 89.8181 65.8718 89.6625 66.0025L66.1425 83.8221L98.6847 86.3211C98.8714 86.3375 99.0114 86.4845 99.0114 86.6805C99.0114 86.8765 98.887 87.0398 98.7003 87.0561L62.067 91.4171C62.0359 91.4171 62.0359 91.4171 62.0203 91.4171Z" fill="white"/>
<path d="M65.147 84.4918C65.007 84.4918 64.867 84.3938 64.8203 84.2468C64.7581 84.0671 64.8359 83.8711 65.007 83.7895L91.6381 70.6575C91.8092 70.5595 92.027 70.6575 92.1048 70.8371C92.1826 71.0168 92.1048 71.2455 91.9337 71.3271L68.4915 82.8748L94.1892 76.3088C94.3759 76.2435 94.5781 76.3741 94.6092 76.5865C94.6559 76.7825 94.547 76.9948 94.3448 77.0275L65.2248 84.4591C65.1937 84.4918 65.1625 84.4918 65.147 84.4918Z" fill="white"/>
<path d="M65.147 84.4918C64.9603 84.4918 64.8048 84.3448 64.7892 84.1488C64.7737 83.9365 64.9137 83.7568 65.1159 83.7405L96.227 80.8495C96.4137 80.8168 96.6003 80.9801 96.6159 81.1925C96.6314 81.4048 96.4914 81.5845 96.2892 81.6008L65.1781 84.4918C65.1626 84.4918 65.147 84.4918 65.147 84.4918Z" fill="white"/>
</svg>
