<svg width="130" height="146" viewBox="0 0 130 146" fill="none" xmlns="http://www.w3.org/2000/svg">
<path d="M47.5303 107.155C47.3457 107.155 47.1457 107.073 47.0227 106.926C46.838 106.714 46.7765 106.404 46.8842 106.142L69.1765 48.9593C69.238 48.8123 69.3303 48.6979 69.4534 48.6163L100.1 27.7749C100.315 27.6279 100.592 27.6116 100.823 27.7586C101.053 27.8893 101.192 28.1506 101.176 28.4283L99.8534 88.1429C99.8534 88.4533 99.6534 88.7309 99.3765 88.8289L47.7765 107.139C47.6842 107.155 47.6073 107.155 47.5303 107.155ZM70.3765 49.7269L48.7611 105.195L98.4534 87.5713L99.7304 29.7676L70.3765 49.7269Z" fill="white"/>
<path d="M46.4688 145.522H46.4534C46.0688 145.506 45.7611 145.163 45.7765 144.754L46.8227 106.73L20.2534 79.9109C20.1303 79.7803 20.0534 79.6169 20.038 79.4373L15.3919 23.2506C15.3765 22.9893 15.4842 22.7279 15.6842 22.5809C15.8842 22.4339 16.1457 22.4013 16.3765 22.5156L70.0996 48.5673C70.4534 48.7306 70.6073 49.188 70.438 49.5473C70.2842 49.923 69.8534 50.0863 69.515 49.9066L16.8996 24.3776L21.4073 79.0289L48.0073 105.881C48.1457 106.028 48.238 106.224 48.2227 106.436L47.1611 144.787C47.1611 145.195 46.8534 145.522 46.4688 145.522Z" fill="white"/>
<path d="M97.4996 139.038C97.4996 139.038 97.4842 139.038 97.4688 139.038C97.0842 139.021 96.7765 138.678 96.7919 138.27L98.4226 88.0776C98.438 87.7673 98.6227 87.5059 98.8842 87.4079L128.207 76.1869C128.576 76.0399 128.976 76.2523 129.1 76.6279C129.238 77.0199 129.038 77.4446 128.684 77.5753L99.8073 88.6166L98.1919 138.303C98.1919 138.727 97.8842 139.038 97.4996 139.038Z" fill="white"/>
<path d="M108.638 15.1003C108.638 15.1003 108.623 15.1003 108.607 15.1003L66.9919 13.4996C66.915 13.4996 66.8227 13.4833 66.7457 13.4343L41.4073 2.06628C41.0534 1.90294 40.8842 1.47828 41.038 1.08628C41.1919 0.710612 41.6073 0.530942 41.9611 0.694276L67.1765 11.9969L108.653 13.5813C109.038 13.5976 109.346 13.9406 109.33 14.3489C109.33 14.7736 109.023 15.1003 108.638 15.1003Z" fill="white"/>
<path d="M113.684 60.4416C113.423 60.4416 113.161 60.2783 113.053 60.0006L99.9457 28.9509L66.9611 13.5323L16.2227 23.9039C15.8996 23.9529 15.5611 23.7733 15.438 23.4466L11.3303 12.4706C11.1919 12.0949 11.3611 11.6539 11.715 11.5069C12.0688 11.3599 12.4842 11.5396 12.6226 11.9153L16.5303 22.3359L66.8996 12.0296C67.038 11.9969 67.1765 12.0133 67.315 12.0786L100.746 27.7096C100.9 27.7749 101.038 27.9219 101.1 28.0853L114.315 59.3963C114.469 59.7719 114.315 60.2129 113.961 60.3763C113.884 60.4253 113.777 60.4416 113.684 60.4416Z" fill="white"/>
<path d="M46.4688 145.522C46.2534 145.522 46.0534 145.424 45.915 145.228L17.2688 105.718L5.49958 104.623C5.16112 104.591 4.89959 104.313 4.86882 103.97L0.222656 59.5106C0.222656 59.4943 0.222656 59.4779 0.222656 59.4616C0.222656 59.3963 0.222663 59.3309 0.253432 59.2493L11.2996 12.0296C11.3611 11.7846 11.5303 11.5886 11.7457 11.5069L41.4688 0.710616C41.5611 0.677949 41.6534 0.661615 41.7457 0.677948L75.1765 3.11161L108.853 13.6629C109.115 13.7446 109.315 13.9896 109.346 14.2836L114.361 59.3963L128.977 76.3993C129.1 76.5463 129.161 76.7259 129.161 76.9219L128.269 111.189C128.269 111.402 128.177 111.598 128.023 111.728L97.9457 138.858C97.838 138.956 97.715 139.005 97.5765 139.038L46.5457 145.522C46.5303 145.522 46.4996 145.522 46.4688 145.522ZM18.3765 104.803L46.7919 143.987L97.2227 137.584L126.9 110.814L127.761 77.1669L113.177 60.2129C113.084 60.0986 113.023 59.9516 112.992 59.8046L108.007 14.9369L74.9303 4.56528L41.7919 2.14794L12.5611 12.7646L1.69958 59.1839L21.2073 78.8329C21.3765 78.9963 21.4534 79.2249 21.4227 79.4699L18.3765 104.803ZM6.19189 103.202L17.0227 104.215L19.9919 79.6659L1.82266 61.3726L6.19189 103.202Z" fill="white"/>
<path d="M46.9919 126.232C46.8688 126.232 46.7611 126.167 46.6842 126.053L20.4227 79.5679C20.3304 79.4046 20.3765 79.1759 20.5304 79.0616C20.6842 78.9473 20.8842 78.9799 21.0073 79.1433L47.5303 116.334C47.6534 116.498 47.6227 116.726 47.4688 116.857C47.315 116.988 47.0996 116.955 46.9765 116.792L24.3765 85.0886L47.2996 125.661C47.3919 125.84 47.3457 126.069 47.1765 126.167C47.115 126.216 47.0534 126.232 46.9919 126.232Z" fill="white"/>
<path d="M39.4996 135.542C39.3611 135.542 39.2227 135.444 39.1765 135.297L20.4073 79.5026C20.3457 79.3229 20.4227 79.1106 20.5919 79.0289C20.7611 78.9473 20.9611 79.0289 21.038 79.2086L47.0688 134.268C47.1611 134.448 47.0842 134.677 46.915 134.758C46.7457 134.856 46.5304 134.775 46.438 134.595L22.9919 84.9906L39.838 135.052C39.8996 135.248 39.8073 135.461 39.6227 135.526C39.5919 135.542 39.5457 135.542 39.4996 135.542Z" fill="white"/>
<path d="M30.115 122.59C29.9611 122.59 29.8073 122.476 29.7765 122.296L21.2842 83.5206L22.638 111.385C22.6534 111.598 22.4996 111.761 22.2996 111.777C22.0996 111.761 21.9457 111.63 21.9304 111.418L20.3765 79.3719C20.3611 79.1759 20.4996 79.0126 20.6842 78.9799C20.8381 78.9636 21.0381 79.0779 21.0688 79.2576L30.4534 122.1C30.4996 122.296 30.3765 122.508 30.1919 122.541C30.1765 122.59 30.1457 122.59 30.115 122.59Z" fill="white"/>
<path d="M47.5303 106.796C47.4227 106.796 47.3303 106.747 47.2534 106.665C47.1303 106.518 47.1457 106.289 47.2842 106.159L99.5919 56.2929C99.7303 56.1623 99.9611 56.1623 100.084 56.3256C100.207 56.4726 100.207 56.7176 100.053 56.8483L52.6073 102.092L99.3919 66.2889C99.5457 66.1583 99.7611 66.2073 99.8842 66.3706C99.9919 66.5339 99.9611 66.7626 99.8073 66.8933L47.715 106.747C47.6688 106.763 47.6073 106.796 47.5303 106.796Z" fill="white"/>
<path d="M48.3304 106.371C48.2073 106.371 48.0842 106.289 48.0227 106.159C47.9457 105.979 48.0073 105.767 48.1611 105.669L99.2534 75.1089C99.4227 75.0109 99.6381 75.0763 99.7304 75.2559C99.8227 75.4356 99.7611 75.6643 99.5919 75.7623L55.4534 102.173L99.1457 81.1523C99.3304 81.0706 99.5304 81.1523 99.6073 81.3319C99.6842 81.5116 99.6073 81.7403 99.4381 81.8219L48.4842 106.338C48.4227 106.355 48.3765 106.371 48.3304 106.371Z" fill="white"/>
<path d="M82.7457 73.2306C82.6996 73.2306 82.6534 73.2143 82.6073 73.1979C82.4227 73.1163 82.3457 72.9039 82.4227 72.7079L100.146 28.2486C100.223 28.0689 100.407 27.9873 100.576 28.0363C100.746 28.1016 100.853 28.2976 100.807 28.4773L91.9611 64.4759C91.915 64.6719 91.7303 64.8026 91.5303 64.7373C91.3457 64.6883 91.238 64.4759 91.2842 64.2799L98.915 33.2303L83.0688 72.9856C83.0073 73.1326 82.8842 73.2306 82.7457 73.2306Z" fill="white"/>
<path d="M59.038 95.8196C58.9765 95.8196 58.8996 95.8033 58.838 95.7543C58.6842 95.6399 58.638 95.4113 58.7303 95.2316L100.146 28.1833C100.253 28.0199 100.453 27.9709 100.623 28.0689C100.792 28.1669 100.838 28.3956 100.746 28.5589L73.4534 82.1486C73.3611 82.3283 73.1457 82.3936 72.9765 82.2956C72.8073 82.1976 72.7457 81.9689 72.838 81.7893L96.2073 35.9089L59.315 95.6399C59.2688 95.7543 59.1611 95.8196 59.038 95.8196Z" fill="white"/>
<path d="M47.5303 106.796C47.4688 106.796 47.4073 106.779 47.3457 106.747C47.1765 106.632 47.1303 106.404 47.238 106.24L84.9611 41.9686L59.8996 75.6806C59.7765 75.844 59.5611 75.8766 59.4073 75.7459C59.2534 75.6153 59.2227 75.3866 59.3457 75.2233L88.315 36.2683C88.438 36.1049 88.638 36.0886 88.7919 36.1866C88.9457 36.301 88.9919 36.5133 88.8842 36.693L47.8381 106.632C47.7611 106.73 47.6534 106.796 47.5303 106.796Z" fill="white"/>
<path d="M82.7457 57.4526C82.715 57.4526 82.6842 57.4526 82.638 57.4363C82.4534 57.3709 82.3457 57.1749 82.4073 56.9789L88.238 36.3663C88.2842 36.203 88.438 36.0723 88.6073 36.1049C88.7765 36.1213 88.8996 36.2683 88.915 36.4479L89.6996 46.3296C89.715 46.542 89.5765 46.7216 89.3765 46.7379C89.1611 46.7706 89.0073 46.6073 88.9919 46.395L88.3765 38.4406L83.0688 57.175C83.038 57.3546 82.8842 57.4526 82.7457 57.4526Z" fill="white"/>
<path d="M93.7457 39.6329C93.6842 39.6329 93.638 39.6166 93.5919 39.6003L88.4227 36.8073C88.2996 36.7419 88.2227 36.5949 88.238 36.4479C88.2534 36.3009 88.3457 36.1703 88.4842 36.1213L97.1457 33.2629C97.3304 33.1976 97.5303 33.3119 97.5765 33.5079C97.638 33.7039 97.5304 33.9163 97.3457 33.9653L89.515 36.5623L93.915 38.9469C94.0842 39.0449 94.1611 39.2573 94.0688 39.4533C93.9919 39.5676 93.8688 39.6329 93.7457 39.6329Z" fill="white"/>
<path d="M65.515 60.6376C65.4227 60.6376 65.3304 60.6049 65.2688 60.5233C65.1304 60.3763 65.1304 60.1476 65.2688 60.0006L88.3304 36.2029C88.4688 36.0559 88.6842 36.0559 88.8227 36.2029C88.9611 36.3499 88.9611 36.5786 88.8227 36.7256L65.7611 60.5233C65.6996 60.6049 65.6073 60.6376 65.515 60.6376Z" fill="white"/>
<path d="M127.577 111.532C127.453 111.532 127.315 111.451 127.269 111.32L113.93 82.4916C113.838 82.3119 113.915 82.0833 114.084 82.0016C114.253 81.9199 114.469 81.9853 114.546 82.1649L126.592 108.184L120.623 79.8293C120.577 79.6333 120.7 79.4373 120.884 79.3883C121.069 79.3393 121.253 79.4699 121.3 79.6659L127.915 111.075C127.961 111.255 127.853 111.451 127.684 111.5C127.653 111.532 127.607 111.532 127.577 111.532Z" fill="white"/>
<path d="M127.577 111.532C127.5 111.532 127.423 111.5 127.361 111.451L100.253 87.8979C100.1 87.7673 100.084 87.5386 100.207 87.3753C100.33 87.2119 100.546 87.1956 100.7 87.3263L125.177 108.609L107.346 85.1049C107.223 84.9416 107.253 84.7129 107.392 84.5823C107.546 84.4516 107.761 84.4843 107.884 84.6313L127.838 110.928C127.946 111.075 127.946 111.287 127.807 111.418C127.746 111.5 127.669 111.532 127.577 111.532Z" fill="white"/>
<path d="M127.577 111.532C127.546 111.532 127.515 111.532 127.484 111.516L98.5611 103.66C98.3765 103.611 98.2534 103.398 98.315 103.202C98.3611 103.006 98.5457 102.876 98.7457 102.941L124.684 109.981L98.7457 95.7869C98.5765 95.6889 98.4996 95.4766 98.5919 95.2806C98.6842 95.1009 98.8996 95.0193 99.0688 95.1173L127.746 110.814C127.9 110.895 127.977 111.091 127.915 111.271C127.853 111.434 127.715 111.532 127.577 111.532Z" fill="white"/>
<path d="M98.1457 118.948C97.9919 118.948 97.838 118.833 97.8073 118.67C97.7611 118.474 97.8842 118.262 98.0688 118.229L124.838 111.483L98.4073 110.895C98.2073 110.895 98.0534 110.716 98.0688 110.52C98.0688 110.307 98.2688 110.128 98.4226 110.16L127.592 110.814C127.761 110.814 127.915 110.961 127.93 111.14C127.946 111.32 127.838 111.5 127.669 111.549L98.238 118.964C98.1919 118.948 98.1765 118.948 98.1457 118.948Z" fill="white"/>
<path d="M97.8688 127.31C97.7457 127.31 97.6227 127.229 97.5611 127.098C97.4688 126.918 97.5457 126.69 97.715 126.608L127.423 110.83C127.592 110.732 127.807 110.814 127.884 110.993C127.976 111.173 127.9 111.402 127.73 111.483L98.0227 127.261C97.9765 127.294 97.9304 127.31 97.8688 127.31Z" fill="white"/>
<path d="M110.361 28.7059C109.992 28.7059 106.838 27.5626 66.9304 13.1076C66.7611 13.0423 66.6534 12.8463 66.6996 12.6503C66.7457 12.4543 66.915 12.34 67.0996 12.389L109.53 21.4049C109.715 21.4376 109.838 21.6336 109.807 21.8459C109.776 22.0419 109.592 22.1889 109.392 22.1399L72.1765 14.2346C83.515 18.3343 110.007 27.9383 110.3 28.0363L110.192 28.3793L110.392 28.6896C110.392 28.7059 110.392 28.7059 110.361 28.7059Z" fill="white"/>
<path d="M111.1 36.8399C111.038 36.8399 110.977 36.8236 110.93 36.7909L101.238 30.9599C101.069 30.8619 101.007 30.6333 101.1 30.4536C101.192 30.2739 101.407 30.2086 101.576 30.3066L111.269 36.1376C111.438 36.2356 111.5 36.4643 111.407 36.6439C111.346 36.7746 111.223 36.8399 111.1 36.8399Z" fill="white"/>
<path d="M112.161 46.3296C112.069 46.3296 111.992 46.2969 111.915 46.2316L104.346 38.4243C104.207 38.2773 104.207 38.0486 104.346 37.9016C104.484 37.7546 104.7 37.7546 104.838 37.9016L112.407 45.7089C112.546 45.8559 112.546 46.0846 112.407 46.2316C112.346 46.2969 112.253 46.3296 112.161 46.3296Z" fill="white"/>
</svg>
