<svg width="134" height="147" viewBox="0 0 134 147" fill="none" xmlns="http://www.w3.org/2000/svg">
<path d="M73.0008 146.147H62.2053C62.1119 146.147 62.0031 146.13 61.9253 146.081L49.0452 140.169C48.983 140.136 48.9208 140.103 48.8741 140.054L16.8142 112.026C16.7519 111.977 16.6897 111.912 16.6586 111.83L12.8319 105.003L6.81186 95.2356C6.7652 95.1539 6.73417 95.0723 6.70306 94.9743L0.122995 58.5019C0.107439 58.4202 0.107439 58.3549 0.122995 58.2733L1.74083 44.6839L3.09416 36.9746C3.12527 36.8113 3.20298 36.6642 3.31186 36.5499L17.7941 22.8789C17.8407 22.8463 17.8875 22.8136 17.9341 22.7809L55.0964 1.85792C55.1586 1.82526 55.2364 1.79259 55.3142 1.77625L65.2385 0.01225C65.3163 -0.00408333 65.3785 -0.00408333 65.4408 0.01225L75.9719 1.41692C76.0497 1.43325 76.1275 1.44957 76.2053 1.48224L114.099 21.5559C114.145 21.5886 114.192 21.6213 114.239 21.6539L126.045 32.0746L129.421 35.3413C129.514 35.4229 129.576 35.5373 129.623 35.6679L131.707 42.6422L133.076 57.0156C133.076 57.0972 133.076 57.1626 133.061 57.2442L125.952 93.4389C125.936 93.5206 125.905 93.6022 125.859 93.6839L115.794 110.442C115.763 110.491 115.716 110.556 115.67 110.589L86.1608 139.172C86.1141 139.221 86.0519 139.254 86.0052 139.287L73.3274 146.049C73.2185 146.114 73.1097 146.147 73.0008 146.147ZM62.3452 144.66H72.8296L85.2741 138.029L114.643 109.576L124.583 93.0143L131.645 57.0646L130.307 42.9526L128.316 36.3212L125.096 33.2179L113.383 22.8789L75.6763 2.90326L65.363 1.53124L55.6563 3.24624L18.6808 24.0549L4.43191 37.4809L3.14078 44.9126L1.55408 58.3386L8.08743 94.5659L14.0452 104.235L17.8252 110.981L49.7141 138.862L62.3452 144.66Z" fill="white"/>
<path d="M85.6786 139.385C85.5541 139.385 85.4297 139.352 85.3208 139.287C84.9786 139.074 84.8697 138.633 85.0564 138.274L88.4008 132.214L91.9319 96.0686L89.5519 81.0256L80.4363 64.8719L28.0764 27.0113L18.0586 24.1529C17.6853 24.0386 17.4519 23.6303 17.5608 23.2383C17.6697 22.8463 18.0586 22.6176 18.4319 22.7156L28.5586 25.6066C28.6364 25.6229 28.7141 25.6719 28.7763 25.7046L81.3542 63.7286C81.4319 63.7939 81.5097 63.8756 81.5564 63.9573L90.8119 80.3723C90.8585 80.4539 90.8896 80.5356 90.9052 80.6336L93.3164 95.9216C93.3319 95.9869 93.3319 96.0523 93.3164 96.1176L89.7541 132.525C89.7385 132.623 89.7074 132.737 89.6608 132.819L86.2385 139.009C86.1608 139.254 85.9274 139.385 85.6786 139.385Z" fill="white"/>
<path d="M62.2053 146.147C61.9253 146.147 61.6608 145.967 61.5519 145.689L59.2653 139.777C59.2341 139.695 59.2185 139.597 59.2185 139.515L58.6119 103.043L61.5053 87.7386C61.5208 87.6569 61.5519 87.5916 61.583 87.5263L67.7119 75.8316C67.743 75.7663 67.8052 75.6846 67.8674 75.6356L80.5297 63.8103L117.287 35.7659L124.925 31.7153C125.268 31.5356 125.703 31.6826 125.874 32.0419C126.045 32.4013 125.905 32.8586 125.563 33.0383L118.019 37.0399L81.4008 64.9863L68.8941 76.6809L62.8897 88.1633L60.0275 103.19L60.6342 139.368L62.8586 145.15C62.9986 145.526 62.8275 145.967 62.4697 146.114C62.3764 146.13 62.283 146.147 62.2053 146.147Z" fill="white"/>
<path d="M73.0008 146.147C72.8919 146.147 72.7831 146.114 72.6742 146.065C72.332 145.869 72.1919 145.428 72.363 145.069L75.2409 139.221L76.9675 102.912L74.6031 88.7513L62.1742 88.6206C62.0808 88.6206 61.9875 88.6043 61.9098 88.5553L46.6808 81.7279L8.38305 53.4876C8.33638 53.4549 8.28977 53.4059 8.2431 53.3569L1.86526 45.2556C1.6786 45.0269 1.64751 44.7003 1.78751 44.4226L8.16525 32.0093C8.25858 31.8296 8.41418 31.6989 8.60085 31.6499C8.78751 31.6009 8.98971 31.6336 9.16082 31.7316L16.7987 36.6806L55.8119 63.7286L68.7542 75.6193C68.8164 75.6683 68.8475 75.7336 68.8942 75.7989L75.4586 87.0689L89.8319 80.1273L125.05 50.9559L130.665 42.1033C130.883 41.7603 131.319 41.6786 131.645 41.8909C131.972 42.1196 132.065 42.5769 131.847 42.9199L126.17 51.8706C126.123 51.9359 126.076 52.0013 126.014 52.0339L90.6408 81.3359C90.5942 81.3686 90.5475 81.4013 90.5009 81.4339L75.9719 88.4409L78.3675 102.733C78.383 102.782 78.383 102.847 78.383 102.896L76.6408 139.45C76.6408 139.564 76.6097 139.662 76.5631 139.76L73.6075 145.755C73.4986 146 73.2497 146.147 73.0008 146.147ZM62.3453 87.1179L73.9342 87.2486L67.7741 76.6646L54.9875 64.9046L16.0675 37.9219L9.08307 33.3976L3.29644 44.6839L9.30087 52.3116L47.3808 80.4213L62.3453 87.1179Z" fill="white"/>
<path d="M59.3119 103.745C59.2186 103.745 59.1253 103.729 59.0475 103.696L43.4919 96.9343C43.4297 96.9179 43.3831 96.8853 43.3364 96.8363L5.97194 67.4689C5.90972 67.42 5.84754 67.3546 5.81643 67.2893L0.24751 58.7633C0.0297326 58.4203 0.107503 57.9629 0.434169 57.7343C0.760836 57.5056 1.1964 57.5873 1.41418 57.9303L6.92081 66.3583L44.1142 95.595L59.4675 102.259L77.5586 102.128L92.2897 95.3989L126.248 65.6069L131.77 56.6889C131.987 56.3459 132.423 56.2479 132.75 56.4766C133.076 56.7053 133.17 57.1626 132.952 57.5056L127.367 66.5216C127.321 66.5869 127.274 66.6359 127.228 66.6849L93.1142 96.6076C93.0675 96.6566 93.0052 96.6893 92.943 96.7219L77.9786 103.549C77.8852 103.582 77.7919 103.615 77.6986 103.615L59.3119 103.745C59.3275 103.745 59.3275 103.745 59.3119 103.745Z" fill="white"/>
<path d="M49.3252 140.218C49.0297 140.218 48.7652 140.022 48.6564 139.728L46.6963 133.995C46.6808 133.929 46.6653 133.88 46.6497 133.815L43.0564 96.2973C43.0564 96.2156 43.0563 96.1339 43.0719 96.0686L46.2919 80.8623C46.3074 80.7969 46.3231 80.7316 46.3542 80.6663L54.8319 63.9736C54.8785 63.8919 54.9408 63.8103 55.0186 63.7449L66.763 53.7816L105.17 25.0513C105.216 25.0186 105.263 24.9859 105.31 24.9696L113.507 21.5233C113.865 21.3763 114.285 21.5559 114.425 21.9316C114.565 22.3073 114.394 22.7482 114.036 22.8953L105.916 26.3089L67.603 54.9576L56.0141 64.8066L47.6452 81.2706L44.4719 96.2646L48.0497 133.57L49.9941 139.205C50.1341 139.597 49.932 140.022 49.5742 140.152C49.4808 140.201 49.403 140.218 49.3252 140.218Z" fill="white"/>
<path d="M59.9185 140.218C59.8252 140.218 59.7319 140.201 59.6386 140.152L47.0696 134.419C47.0074 134.387 46.9608 134.354 46.8986 134.321L13.1897 105.542C13.0653 105.428 12.9719 105.281 12.9408 105.117L5.69191 67.0116C5.67635 66.9136 5.67635 66.8319 5.69191 66.7339L8.103 52.7199C8.11856 52.6546 8.13408 52.5729 8.16519 52.5076L15.803 36.9419C15.8497 36.8603 15.8963 36.7786 15.9585 36.7296L27.8897 25.7373L64.0408 4.84692L55.2675 3.21359C54.8786 3.14825 54.6297 2.75625 54.6919 2.34792C54.7541 1.93959 55.1274 1.67826 55.5163 1.7436L66.1252 3.71994L75.6919 1.40059C76.0963 1.30259 76.4541 1.56394 76.5474 1.95594C76.6408 2.36427 76.3919 2.75628 76.0186 2.85428L68.2097 4.74892L105.87 25.0023C105.916 25.0349 105.963 25.0513 105.994 25.1003L118.112 35.7659C118.174 35.8313 118.236 35.8966 118.283 35.9783L126.201 51.0866C126.247 51.1846 126.279 51.2826 126.279 51.3806L127.445 66.0316C127.445 66.0969 127.445 66.1623 127.445 66.2276L121.783 100.299C121.752 100.446 121.69 100.577 121.596 100.691L115.452 107.404L89.5674 132.966C89.5208 133.015 89.4586 133.047 89.3963 133.08L76.2519 140.054C76.1585 140.103 76.0496 140.136 75.9408 140.136L59.9185 140.218ZM47.723 133.113L60.0586 138.731L75.7697 138.666L88.6808 131.822L114.472 106.359L120.445 99.8253L126.061 66.0643L124.925 51.6746L117.147 36.8113L105.185 26.2926L66.2031 5.33692L28.7453 26.9459L17.0319 37.7423L9.50304 53.0793L7.12299 66.8483L14.2941 104.546L47.723 133.113Z" fill="white"/>
<path d="M59.9185 139.858C59.8874 139.858 59.8563 139.858 59.8096 139.842C59.6385 139.777 59.5297 139.597 59.5608 139.401L67.1675 102.929C67.2141 102.733 67.3852 102.618 67.5874 102.651C67.7741 102.7 67.8986 102.896 67.8519 103.092L61.163 135.187L73.5297 102.765C73.6074 102.569 73.8096 102.488 73.9963 102.553C74.183 102.635 74.2608 102.847 74.1985 103.043L60.2452 139.63C60.1986 139.76 60.0585 139.858 59.9185 139.858Z" fill="white"/>
<path d="M59.9185 139.858C59.8408 139.858 59.763 139.826 59.7008 139.777C59.5608 139.662 59.5141 139.45 59.6075 139.287L77.0764 109.054C77.1698 108.874 77.3875 108.825 77.5586 108.923C77.7298 109.037 77.7764 109.266 77.683 109.429L61.8475 136.837L76.5631 120.912C76.7031 120.765 76.9209 120.765 77.0609 120.912C77.2009 121.059 77.2009 121.287 77.0609 121.434L60.1675 139.728C60.1053 139.809 60.0119 139.858 59.9185 139.858Z" fill="white"/>
<path d="M59.9185 139.858C59.7785 139.858 59.6542 139.777 59.5919 139.646C59.5142 139.483 59.5763 139.27 59.7319 139.172L76.2674 128.556C76.4386 128.458 76.6563 128.507 76.7497 128.686C76.8586 128.866 76.7963 129.095 76.6252 129.193L62.5163 138.241L76.0808 133.815C76.2675 133.75 76.4696 133.864 76.5319 134.06C76.5941 134.256 76.4853 134.468 76.2986 134.534L60.0274 139.842C59.9963 139.842 59.9497 139.858 59.9185 139.858Z" fill="white"/>
</svg>
