<svg width="136" height="136" viewBox="0 0 136 136" fill="none" xmlns="http://www.w3.org/2000/svg">
<path d="M85.4834 135.368C85.4367 135.368 85.4056 135.368 85.3589 135.352L46.7345 128.214C46.5634 128.181 46.4078 128.083 46.2989 127.936L25.3767 99.01L0.643378 52.166C0.550045 51.9863 0.534476 51.7903 0.581143 51.5943L8.81004 21.3613C8.85671 21.1817 8.9656 21.0347 9.1056 20.9366L39.1589 0.65063C39.2834 0.568963 39.4234 0.520001 39.5478 0.536334L93.0278 1.66334C93.09 1.66334 93.1523 1.67965 93.2145 1.69599L125.772 12.0187C126.006 12.084 126.177 12.28 126.254 12.525L135.914 48.2133C135.961 48.393 135.946 48.589 135.868 48.7523L118.166 85.1756L96.4967 122.971L86.0434 135.107C85.8723 135.286 85.6856 135.368 85.4834 135.368ZM47.2478 126.809L85.2189 133.816L95.33 122.105L116.89 84.4733L134.452 48.344L124.979 13.3417L92.8878 3.16598L39.7189 2.03897L10.07 22.0473L1.9967 51.725L26.5434 98.2096L47.2478 126.809Z" fill="white"/>
<path d="M36.6545 44.669C36.499 44.669 36.3434 44.62 36.219 44.5057L9.02783 22.1617C8.71671 21.9003 8.67007 21.443 8.9034 21.1163C9.15229 20.7897 9.58787 20.7407 9.89898 20.9857L36.8412 43.1337L83.4923 34.9996L92.3123 2.21869C92.4212 1.82669 92.8101 1.59803 93.1834 1.71236C93.5567 1.8267 93.7745 2.23502 93.6656 2.62702L84.7367 35.8653C84.659 36.143 84.4412 36.3553 84.1768 36.4043L36.779 44.669C36.7323 44.669 36.6856 44.669 36.6545 44.669Z" fill="white"/>
<path d="M117.497 85.6003C117.279 85.6003 117.061 85.486 116.921 85.29L83.4767 36.094C83.2434 35.7673 83.3212 35.2936 83.6478 35.065C83.9589 34.82 84.41 34.9017 84.6278 35.2447L118.072 84.4407C118.306 84.7837 118.228 85.241 117.901 85.4697C117.777 85.5677 117.637 85.6003 117.497 85.6003Z" fill="white"/>
<path d="M95.859 123.347C95.7345 123.347 95.6101 123.314 95.5012 123.249L58.1212 100.333C57.9812 100.251 57.8879 100.121 57.8256 99.9737L36.0012 44.1953C35.8457 43.8197 36.0323 43.3787 36.3901 43.2317C36.7479 43.0683 37.1679 43.2643 37.3079 43.64L59.039 99.1733L96.2167 121.958C96.559 122.171 96.6679 122.628 96.4656 122.971C96.3412 123.216 96.0923 123.347 95.859 123.347Z" fill="white"/>
<path d="M58.4789 100.447H58.4633L25.9056 99.3203C25.5167 99.304 25.2056 98.961 25.2211 98.5526C25.2367 98.1443 25.5478 97.834 25.9522 97.834L58.5101 98.961C58.899 98.9773 59.21 99.3203 59.1945 99.7286C59.1634 100.121 58.8523 100.447 58.4789 100.447Z" fill="white"/>
<path d="M100.774 31.7167H100.759L48.0878 28.9074C47.9478 28.9074 47.8234 28.793 47.7767 28.646L39.19 1.41833C39.1278 1.22233 39.2367 1.01003 39.4078 0.944699C39.5945 0.879366 39.7967 0.97734 39.8589 1.17334L48.3678 28.156L100.681 30.949L125.352 12.427C125.508 12.3127 125.726 12.3453 125.85 12.5087C125.959 12.672 125.928 12.917 125.772 13.0314L101.008 31.6187C100.914 31.684 100.852 31.7167 100.774 31.7167Z" fill="white"/>
<path d="M17.5212 69.61C17.4278 69.61 17.3345 69.5774 17.2723 69.4957L1.00118 52.068C0.861179 51.921 0.861179 51.6923 1.00118 51.5453C1.14118 51.3983 1.35892 51.3983 1.49892 51.5453L17.49 68.679L47.8234 28.2867C47.9478 28.1233 48.1656 28.0907 48.3211 28.2213C48.4767 28.352 48.5078 28.5807 48.3834 28.744L17.8012 69.463C17.7389 69.5447 17.6456 69.5937 17.5367 69.61C17.5211 69.61 17.5212 69.61 17.5212 69.61Z" fill="white"/>
<path d="M46.8434 127.855C46.7034 127.855 46.5789 127.773 46.5167 127.626L37.2145 104.335L17.2101 69.4303C17.1167 69.2506 17.1634 69.022 17.3345 68.924C17.5056 68.826 17.7234 68.875 17.8168 69.0546L37.8523 104.008L47.1701 127.348C47.2479 127.544 47.1545 127.757 46.9834 127.838C46.9368 127.855 46.8901 127.855 46.8434 127.855Z" fill="white"/>
<path d="M104.259 93.4894C104.212 93.4894 104.181 93.4893 104.134 93.4567L76.7723 82.3827C76.6789 82.35 76.6011 82.2683 76.57 82.1703C76.5389 82.0723 76.5389 81.958 76.5856 81.8763L100.463 31.1777C100.557 30.998 100.759 30.9164 100.93 31.0144C101.101 31.1124 101.179 31.3247 101.086 31.5043L77.3789 81.8437L104.134 92.6727L134.919 48.2134C135.028 48.05 135.261 48.001 135.417 48.1317C135.572 48.246 135.603 48.491 135.494 48.6543L104.554 93.3423C104.477 93.4403 104.368 93.4894 104.259 93.4894Z" fill="white"/>
<path d="M85.4834 134.992C85.4367 134.992 85.3745 134.976 85.3278 134.96C85.1567 134.878 85.0789 134.649 85.1567 134.47L103.932 92.9666C104.01 92.787 104.228 92.7053 104.399 92.7869C104.57 92.8686 104.648 93.0973 104.57 93.277L85.7945 134.78C85.7478 134.927 85.6078 134.992 85.4834 134.992Z" fill="white"/>
<path d="M37.5412 104.58C37.4167 104.58 37.2923 104.514 37.2301 104.384C37.1367 104.204 37.1989 103.975 37.37 103.877L76.7101 81.713C76.8812 81.615 77.0989 81.6803 77.1923 81.86C77.2856 82.0396 77.2234 82.2683 77.0523 82.3663L37.7123 104.531C37.6656 104.563 37.6034 104.58 37.5412 104.58Z" fill="white"/>
</svg>
